# xmcd
#
# Track frame offsets:
#	150
#	16167
#	30597
#	43696
#	56259
#	76899
#	91659
#	109051
#	128803
#	141475
#	158393
#	173281
#
# Disc length: 2507 seconds
#
# Revision: 0
# Processed by: cddbd v1.5.2PL0 Copyright (c) Steve Scherf et al.
# Submitted via: EasyCDDAExtractor 12.0.0.1
#
DISCID=7f09c90c
DTITLE=John O'Dea - Storyteller
DYEAR=2009
DGENRE=Country
TTITLE0=Streaky Bay
TTITLE1=Stars And Rainbows
TTITLE2=Where The Outback Starts
TTITLE3=Two Dollars For A Blanket
TTITLE4=River Murray Dreaming
TTITLE5=Ram In The Dam
TTITLE6=The Saddle
TTITLE7=Play Clair De Lune
TTITLE8=Ben Hall
TTITLE9=Remarkable
TTITLE10=Ride Of Your Life
TTITLE11=Cross At The Side Of The Road
EXTD=
EXTT0=
EXTT1=
EXTT2=
EXTT3=
EXTT4=
EXTT5=
EXTT6=
EXTT7=
EXTT8=
EXTT9=
EXTT10=
EXTT11=
PLAYORDER=
